<mxfile host="app.diagrams.net" agent="Mozilla/5.0 (Macintosh; Intel Mac OS X 10_15_7) AppleWebKit/537.36 (KHTML, like Gecko) obsidian/1.6.5 Chrome/124.0.6367.243 Electron/30.1.2 Safari/537.36" version="26.2.14">
  <diagram name="第 1 页" id="u1PZpCzdW5XGjvPMDqVx">
    <mxGraphModel dx="931" dy="921" grid="1" gridSize="10" guides="1" tooltips="1" connect="1" arrows="1" fold="1" page="0" pageScale="1" pageWidth="827" pageHeight="1169" math="0" shadow="0">
      <root>
        <mxCell id="0" />
        <mxCell id="1" parent="0" />
      </root>
    </mxGraphModel>
  </diagram>
</mxfile>
